<svg width="1440" height="740" viewBox="0 0 1440 740" fill="none" xmlns="http://www.w3.org/2000/svg">
<g opacity="0.8" clip-path="url(#clip0_5214_181933)">
<mask id="mask0_5214_181933" style="mask-type:alpha" maskUnits="userSpaceOnUse" x="0" y="-8" width="1440" height="740">
<rect y="-8" width="1440" height="740" fill="url(#paint0_radial_5214_181933)" fill-opacity="0.4"/>
</mask>
<g mask="url(#mask0_5214_181933)">
<rect x="162.337" y="4.40577" width="123.67" height="123.67" stroke="white" stroke-width="1.56544"/>
<rect x="286.009" y="4.40577" width="123.67" height="123.67" stroke="white" stroke-width="1.56544"/>
<rect x="409.681" y="4.40577" width="123.67" height="123.67" stroke="white" stroke-width="1.56544"/>
<rect x="533.345" y="4.40577" width="123.67" height="123.67" stroke="white" stroke-width="1.56544"/>
<rect x="657.017" y="4.40577" width="123.67" height="123.67" stroke="white" stroke-width="1.56544"/>
<rect x="780.689" y="4.40577" width="123.67" height="123.67" stroke="white" stroke-width="1.56544"/>
<rect x="904.361" y="4.40577" width="123.67" height="123.67" fill="white" fill-opacity="0.25" stroke="white" stroke-width="1.56544"/>
<rect x="1028.02" y="4.40577" width="123.67" height="123.67" stroke="white" stroke-width="1.56544"/>
<rect x="1151.7" y="4.40577" width="123.67" height="123.67" stroke="white" stroke-width="1.56544"/>
<rect x="162.337" y="128.076" width="123.67" height="123.67" stroke="white" stroke-width="1.56544"/>
<rect x="286.009" y="128.076" width="123.67" height="123.67" stroke="white" stroke-width="1.56544"/>
<rect x="409.681" y="128.076" width="123.67" height="123.67" stroke="white" stroke-width="1.56544"/>
<rect x="533.345" y="128.076" width="123.67" height="123.67" stroke="white" stroke-width="1.56544"/>
<rect x="657.017" y="128.076" width="123.67" height="123.67" stroke="white" stroke-width="1.56544"/>
<rect x="780.689" y="128.076" width="123.67" height="123.67" stroke="white" stroke-width="1.56544"/>
<rect x="904.361" y="128.076" width="123.67" height="123.67" stroke="white" stroke-width="1.56544"/>
<rect x="1028.02" y="128.076" width="123.67" height="123.67" stroke="white" stroke-width="1.56544"/>
<rect x="1151.7" y="128.076" width="123.67" height="123.67" stroke="white" stroke-width="1.56544"/>
<rect x="162.337" y="251.746" width="123.67" height="123.67" stroke="white" stroke-width="1.56544"/>
<rect x="286.009" y="251.746" width="123.67" height="123.67" stroke="white" stroke-width="1.56544"/>
<rect x="409.681" y="251.746" width="123.67" height="123.67" stroke="white" stroke-width="1.56544"/>
<rect x="533.345" y="251.746" width="123.67" height="123.67" stroke="white" stroke-width="1.56544"/>
<rect x="657.017" y="251.746" width="123.67" height="123.67" fill="white" fill-opacity="0.25" stroke="white" stroke-width="1.56544"/>
<rect x="780.689" y="251.746" width="123.67" height="123.67" stroke="white" stroke-width="1.56544"/>
<rect x="904.361" y="251.746" width="123.67" height="123.67" fill="white" fill-opacity="0.25" stroke="white" stroke-width="1.56544"/>
<rect x="1028.02" y="251.746" width="123.67" height="123.67" stroke="white" stroke-width="1.56544"/>
<rect x="1151.7" y="251.746" width="123.67" height="123.67" stroke="white" stroke-width="1.56544"/>
<rect x="162.337" y="375.416" width="123.67" height="123.67" stroke="white" stroke-width="1.56544"/>
<rect x="286.009" y="375.416" width="123.67" height="123.67" stroke="white" stroke-width="1.56544"/>
<rect x="409.681" y="375.416" width="123.67" height="123.67" stroke="white" stroke-width="1.56544"/>
<rect x="533.345" y="375.416" width="123.67" height="123.67" stroke="white" stroke-width="1.56544"/>
<rect x="657.017" y="375.416" width="123.67" height="123.67" stroke="white" stroke-width="1.56544"/>
<rect x="780.689" y="375.416" width="123.67" height="123.67" stroke="white" stroke-width="1.56544"/>
<rect x="904.361" y="375.416" width="123.67" height="123.67" stroke="white" stroke-width="1.56544"/>
<rect x="1028.02" y="375.416" width="123.67" height="123.67" stroke="white" stroke-width="1.56544"/>
<rect x="1151.7" y="375.416" width="123.67" height="123.67" stroke="white" stroke-width="1.56544"/>
<rect x="162.337" y="499.086" width="123.67" height="123.67" stroke="white" stroke-width="1.56544"/>
<rect x="286.009" y="499.086" width="123.67" height="123.67" stroke="white" stroke-width="1.56544"/>
<rect x="409.681" y="499.086" width="123.67" height="123.67" stroke="white" stroke-width="1.56544"/>
<rect x="533.345" y="499.086" width="123.67" height="123.67" fill="white" fill-opacity="0.25" stroke="white" stroke-width="1.56544"/>
<rect x="657.017" y="499.086" width="123.67" height="123.67" stroke="white" stroke-width="1.56544"/>
<rect x="780.689" y="499.086" width="123.67" height="123.67" stroke="white" stroke-width="1.56544"/>
<rect x="904.361" y="499.086" width="123.67" height="123.67" stroke="white" stroke-width="1.56544"/>
<rect x="1028.02" y="499.086" width="123.67" height="123.67" stroke="white" stroke-width="1.56544"/>
<rect x="1151.7" y="499.086" width="123.67" height="123.67" stroke="white" stroke-width="1.56544"/>
<rect x="162.337" y="622.757" width="123.67" height="123.67" stroke="white" stroke-width="1.56544"/>
<rect x="286.009" y="622.757" width="123.67" height="123.67" stroke="white" stroke-width="1.56544"/>
<rect x="409.681" y="622.757" width="123.67" height="123.67" stroke="white" stroke-width="1.56544"/>
<rect x="533.345" y="622.757" width="123.67" height="123.67" stroke="white" stroke-width="1.56544"/>
<rect x="657.017" y="622.757" width="123.67" height="123.67" stroke="white" stroke-width="1.56544"/>
<rect x="780.689" y="622.757" width="123.67" height="123.67" stroke="white" stroke-width="1.56544"/>
<rect x="904.361" y="622.757" width="123.67" height="123.67" stroke="white" stroke-width="1.56544"/>
<rect x="1028.02" y="622.757" width="123.67" height="123.67" stroke="white" stroke-width="1.56544"/>
<rect x="1151.7" y="622.757" width="123.67" height="123.67" stroke="white" stroke-width="1.56544"/>
</g>
</g>
<defs>
<radialGradient id="paint0_radial_5214_181933" cx="0" cy="0" r="1" gradientUnits="userSpaceOnUse" gradientTransform="translate(720 362) rotate(90) scale(456.127 887.598)">
<stop stop-color="#D9D9D9" stop-opacity="0.2"/>
<stop offset="0.802083" stop-color="#D9D9D9" stop-opacity="0"/>
</radialGradient>
<clipPath id="clip0_5214_181933">
<rect width="1440" height="740" fill="white"/>
</clipPath>
</defs>
</svg>
